<svg width="24" height="24" viewBox="0 0 24 24" fill="none" xmlns="http://www.w3.org/2000/svg">
<path d="M5.24976 4.5C3.46379 4.5 1.99976 5.96403 1.99976 7.75V16.25C1.99976 18.036 3.46379 19.5 5.24976 19.5H13.7498C15.5357 19.5 16.9998 18.036 16.9998 16.25V15.5752L20.864 17.8936C20.9779 17.9618 21.1078 17.9986 21.2405 18.0002C21.3732 18.0019 21.504 17.9682 21.6195 17.9028C21.7349 17.8374 21.831 17.7425 21.8978 17.6278C21.9646 17.5131 21.9998 17.3827 21.9998 17.25V6.75C21.9998 6.64959 21.9797 6.5502 21.9406 6.45772C21.9015 6.36523 21.8442 6.28154 21.7722 6.21159C21.7001 6.14165 21.6148 6.08688 21.5212 6.05053C21.4276 6.01419 21.3277 5.997 21.2273 6C21.0991 6.00384 20.974 6.04049 20.864 6.10645L16.9998 8.4248V7.75C16.9998 5.96403 15.5357 4.5 13.7498 4.5H5.24976ZM5.24976 6H13.7498C14.7248 6 15.4998 6.77497 15.4998 7.75V9.72656V14.2412V16.25C15.4998 17.225 14.7248 18 13.7498 18H5.24976C4.27472 18 3.49976 17.225 3.49976 16.25V7.75C3.49976 6.77497 4.27472 6 5.24976 6ZM20.4998 8.0752V15.9248L16.9998 13.8252V10.1748L20.4998 8.0752ZM9.49976 9.5C8.12126 9.5 6.99976 10.6215 6.99976 12C6.99976 13.3785 8.12126 14.5 9.49976 14.5C10.8783 14.5 11.9998 13.3785 11.9998 12C11.9998 10.6215 10.8783 9.5 9.49976 9.5Z" fill="#FF5280"/>
<path d="M9.49976 9.5C8.12126 9.5 6.99976 10.6215 6.99976 12C6.99976 13.3785 8.12126 14.5 9.49976 14.5C10.8783 14.5 11.9998 13.3785 11.9998 12C11.9998 10.6215 10.8783 9.5 9.49976 9.5Z" fill="#FE457E"/>
</svg>
