<svg width="24" height="24" viewBox="0 0 24 24" fill="none" xmlns="http://www.w3.org/2000/svg">
<path d="M3.25 7C2.29252 7 1.5 7.79252 1.5 8.75V11.2646C1.50003 11.371 1.52265 11.4761 1.56638 11.573C1.6101 11.6699 1.67392 11.7564 1.75362 11.8267C1.83331 11.8971 1.92705 11.9497 2.02862 11.9811C2.13019 12.0125 2.23728 12.0219 2.34277 12.0088C2.38843 12.0031 2.44441 12 2.5 12C3.61539 12 4.5 12.8846 4.5 14C4.5 15.1154 3.61539 16 2.5 16C2.44441 16 2.38843 15.9969 2.34277 15.9912C2.23728 15.9781 2.13019 15.9875 2.02862 16.0189C1.92705 16.0503 1.83331 16.1029 1.75362 16.1733C1.67392 16.2436 1.6101 16.3301 1.56638 16.427C1.52265 16.5239 1.50003 16.629 1.5 16.7354V19.25C1.5 20.2075 2.29252 21 3.25 21H20.75C21.7075 21 22.5 20.2075 22.5 19.25V16.7354C22.5 16.629 22.4773 16.5239 22.4336 16.427C22.3899 16.3301 22.3261 16.2436 22.2464 16.1733C22.1667 16.1029 22.073 16.0503 21.9714 16.0189C21.8698 15.9875 21.7627 15.9781 21.6572 15.9912C21.6116 15.9969 21.5556 16 21.5 16C20.3846 16 19.5 15.1154 19.5 14C19.5 12.8846 20.3846 12 21.5 12C21.5556 12 21.6116 12.0031 21.6572 12.0088C21.7627 12.0219 21.8698 12.0125 21.9714 11.9811C22.073 11.9497 22.1667 11.8971 22.2464 11.8267C22.3261 11.7564 22.3899 11.6699 22.4336 11.573C22.4773 11.4761 22.5 11.371 22.5 11.2646V8.75C22.5 7.79252 21.7075 7 20.75 7H3.25ZM3.25 8.5H20.75C20.8975 8.5 21 8.60248 21 8.75V10.6016C19.3203 10.8554 18 12.2525 18 14C18 15.7475 19.3203 17.1446 21 17.3984V19.25C21 19.3975 20.8975 19.5 20.75 19.5H3.25C3.10248 19.5 3 19.3975 3 19.25V17.3984C4.67974 17.1446 6 15.7475 6 14C6 12.2525 4.67974 10.8554 3 10.6016V8.75C3 8.60248 3.10248 8.5 3.25 8.5Z" fill="#FF5280"/>
<path d="M19.1338 2.44628C19.0197 2.45031 18.9045 2.46543 18.791 2.49218L3.88184 5.99999H10.4316L19.1348 3.95214C19.2223 3.93014 19.2897 3.96242 19.3232 3.98242C19.3557 4.00292 19.4141 4.04969 19.4346 4.13769L19.8809 5.99999H21.4141L20.8955 3.79492C20.7885 3.33992 20.5108 2.95303 20.1133 2.70703C19.8148 2.52253 19.4762 2.43419 19.1338 2.44628Z" fill="#FF5280" fill-opacity="0.5"/>
</svg>
