<svg width="24" height="24" viewBox="0 0 24 24" fill="none" xmlns="http://www.w3.org/2000/svg">
<path d="M12 8.5C11.0625 8.5 10.2644 8.87857 9.75195 9.45508C9.2395 10.0316 9 10.7708 9 11.5C9 12.2292 9.2395 12.9684 9.75195 13.5449C10.2644 14.1214 11.0625 14.5 12 14.5C12.9375 14.5 13.7356 14.1214 14.248 13.5449C14.7605 12.9684 15 12.2292 15 11.5C15 10.7708 14.7605 10.0316 14.248 9.45508C13.7356 8.87857 12.9375 8.5 12 8.5ZM12 10C12.5625 10 12.8894 10.1839 13.127 10.4512C13.3645 10.7184 13.5 11.1042 13.5 11.5C13.5 11.8958 13.3645 12.2816 13.127 12.5488C12.8894 12.8161 12.5625 13 12 13C11.4375 13 11.1106 12.8161 10.873 12.5488C10.6355 12.2816 10.5 11.8958 10.5 11.5C10.5 11.1042 10.6355 10.7184 10.873 10.4512C11.1106 10.1839 11.4375 10 12 10ZM3.75 10.5C2.785 10.5 2 11.285 2 12.25V13.5C2 15.18 3.975 16.5 6.5 16.5H6.60547C6.83047 15.695 7.41969 15.0398 8.17969 14.7148C7.70469 14.8898 7.13 15 6.5 15C4.785 15 3.5 14.21 3.5 13.5V12.25C3.5 12.11 3.61 12 3.75 12H8.03027C8.01027 11.835 8 11.67 8 11.5C8 11.155 8.045 10.82 8.125 10.5H3.75ZM15.875 10.5C15.955 10.82 16 11.155 16 11.5C16 11.67 15.9897 11.835 15.9697 12H20.25C20.39 12 20.5 12.11 20.5 12.25V13.5C20.5 14.21 19.215 15 17.5 15C16.87 15 16.2953 14.8898 15.8203 14.7148C16.5803 15.0398 17.1695 15.695 17.3945 16.5H17.5C20.025 16.5 22 15.18 22 13.5V12.25C22 11.285 21.215 10.5 20.25 10.5H15.875ZM9.25 15.5C8.29252 15.5 7.5 16.2925 7.5 17.25V18.5C7.5 19.4591 8.13996 20.2406 8.96289 20.7344C9.78582 21.2281 10.8429 21.5 12 21.5C13.1571 21.5 14.2142 21.2281 15.0371 20.7344C15.86 20.2406 16.5 19.4591 16.5 18.5V17.25C16.5 16.2925 15.7075 15.5 14.75 15.5H9.25ZM9.25 17H14.75C14.8975 17 15 17.1025 15 17.25V18.5C15 18.7834 14.7999 19.1276 14.2656 19.4482C13.7313 19.7688 12.9139 20 12 20C11.0861 20 10.2687 19.7688 9.73438 19.4482C9.20006 19.1276 9 18.7834 9 18.5V17.25C9 17.1025 9.10248 17 9.25 17Z" fill="#4E5283" fill-opacity="0.7"/>
<path d="M6.5 3.5C5.5625 3.5 4.76441 3.87857 4.25195 4.45508C3.7395 5.03159 3.5 5.77083 3.5 6.5C3.5 7.22917 3.7395 7.96841 4.25195 8.54492C4.76441 9.12143 5.5625 9.5 6.5 9.5C7.4375 9.5 8.23559 9.12143 8.74805 8.54492C9.2605 7.96841 9.5 7.22917 9.5 6.5C9.5 5.77083 9.2605 5.03159 8.74805 4.45508C8.23559 3.87857 7.4375 3.5 6.5 3.5ZM17.5 3.5C16.5625 3.5 15.7644 3.87857 15.252 4.45508C14.7395 5.03159 14.5 5.77083 14.5 6.5C14.5 7.22917 14.7395 7.96841 15.252 8.54492C15.7644 9.12143 16.5625 9.5 17.5 9.5C18.4375 9.5 19.2356 9.12143 19.748 8.54492C20.2605 7.96841 20.5 7.22917 20.5 6.5C20.5 5.77083 20.2605 5.03159 19.748 4.45508C19.2356 3.87857 18.4375 3.5 17.5 3.5ZM6.5 5C7.0625 5 7.38941 5.18393 7.62695 5.45117C7.8645 5.71841 8 6.10417 8 6.5C8 6.89583 7.8645 7.28159 7.62695 7.54883C7.38941 7.81607 7.0625 8 6.5 8C5.9375 8 5.61059 7.81607 5.37305 7.54883C5.1355 7.28159 5 6.89583 5 6.5C5 6.10417 5.1355 5.71841 5.37305 5.45117C5.61059 5.18393 5.9375 5 6.5 5ZM17.5 5C18.0625 5 18.3894 5.18393 18.627 5.45117C18.8645 5.71841 19 6.10417 19 6.5C19 6.89583 18.8645 7.28159 18.627 7.54883C18.3894 7.81607 18.0625 8 17.5 8C16.9375 8 16.6106 7.81607 16.373 7.54883C16.1355 7.28159 16 6.89583 16 6.5C16 6.10417 16.1355 5.71841 16.373 5.45117C16.6106 5.18393 16.9375 5 17.5 5Z" fill="#4E5283" fill-opacity="0.4"/>
</svg>
